PathFileType	4	(X/Y/Z)	Walk2.trc
DataRate	CameraRate	NumFrames	NumMarkers	Units	OrigDataRate	OrigDataStartFrame	OrigNumFrames
200.000000	200.000000	4	68	mm	200.000000	569	862
Frame#	Times		LFHD		LowerBodyModelVer		RCAR		RWRU		LElbow		LTH2		RACR1		RUA1		RASI		RFA1		LACR1		LTH4		LTB1		LLFC		RTH2		LMT5		LUA1		LTB4		LTB3		LTB2		LToe		LMT1		RTH4		LASI		PELOrigin		LLMAL		RBHD		STRN		RLFC		CLAV		RTH3		LFA1		LWRU		RBack		LPSI		RMT1		RMT5		LCAR		RTH1		RTB2		RCAL		LTH1		C7		RLMAL		RFHD		LBHD		RToe		RPSI		LHJC		MidPelvis		OPelvis		RHJC		SACR		XPelvis		YPelvis		ZPelvis		LWRR		RTB1		RTB3		RTB4		RMMAL		RWRR		RElbow		LTH3		LMMAL		T10		LCAL		LElbowM
			X1	Y1	Z1	X2	Y2	Z2	X3	Y3	Z3	X4	Y4	Z4	X5	Y5	Z5	X6	Y6	Z6	X7	Y7	Z7	X8	Y8	Z8	X9	Y9	Z9	X10	Y10	Z10	X11	Y11	Z11	X12	Y12	Z12	X13	Y13	Z13	X14	Y14	Z14	X15	Y15	Z15	X16	Y16	Z16	X17	Y17	Z17	X18	Y18	Z18	X19	Y19	Z19	X20	Y20	Z20	X21	Y21	Z21	X22	Y22	Z22	X23	Y23	Z23	X24	Y24	Z24	X25	Y25	Z25	X26	Y26	Z26	X27	Y27	Z27	X28	Y28	Z28	X29	Y29	Z29	X30	Y30	Z30	X31	Y31	Z31	X32	Y32	Z32	X33	Y33	Z33	X34	Y34	Z34	X35	Y35	Z35	X36	Y36	Z36	X37	Y37	Z37	X38	Y38	Z38	X39	Y39	Z39	X40	Y40	Z40	X41	Y41	Z41	X42	Y42	Z42	X43	Y43	Z43	X44	Y44	Z44	X45	Y45	Z45	X46	Y46	Z46	X47	Y47	Z47	X48	Y48	Z48	X49	Y49	Z49	X50	Y50	Z50	X51	Y51	Z51	X52	Y52	Z52	X53	Y53	Z53	X54	Y54	Z54	X55	Y55	Z55	X56	Y56	Z56	X57	Y57	Z57	X58	Y58	Z58	X59	Y59	Z59	X60	Y60	Z60	X61	Y61	Z61	X62	Y62	Z62	X63	Y63	Z63	X64	Y64	Z64	X65	Y65	Z65	X66	Y66	Z66	X67	Y67	Z67	X68	Y68	Z68

569	2.845	-289.42	1574.1	-61.634	9	2014	4	-416.22	798.15	327.3	-458.7	851.53	339.78	-497.07	1068.3	-299.75	-289.22	655.04	-168.76	-428.74	1384.2	157.01	-470.47	1244.3	249.97	-348.22	961.67	173.63	-445.16	958.97	310.79	-403.64	1352	-196.61	-340.94	643.59	-197.84	-315.6	334.18	-42.534	-344.72	486.44	-148.13	-367.47	628.18	207.7	-261.62	25.575	-111.16	-425.72	1204.4	-268.97	-329.05	249.86	-47.196	-335.8	164.23	-48.56	-326.31	252.1	-108.64	-208.33	30.73	-16.231	-250.9	35.676	-19.62	-426.83	627.08	218.36	-320.63	965.12	-173.06	-334.43	963.4	0.28503	-379.35	68.147	-110.27	-458.74	1570.5	46.785	-279.72	1221	-4.6425	-429.77	455.17	201.9	-339.96	1336.2	-14.561	-426.01	540.97	207.19	-466.7	938.02	-331.7	-514.51	828.5	-360.69	-564.68	1317.4	78.394	-563.81	980.1	-112.32	-633.46	61.821	80.363	-660.74	61.153	161.3	-490.2	773.14	-360.66	-415.62	710.29	230.47	-529.97	301.12	178.95	-761.09	196.14	101.91	-341.99	724.03	-225.99	-500.88	1414.5	-16.167	-706.71	181.99	154.76	-301.68	1582.1	32.605	-441.24	1559	-87.843	-605.09	33.287	92.966	-589.09	974.21	20.338	-411.22	857.88	-125.51	-455.44	970.28	-22.853	-334.43	963.4	0.28503	-429.98	855.53	110.24	-576.45	977.16	-45.991	-254.79	959	6.5777	-330.1	1043.3	1.4243	-340.77	962.6	80.029	-462.2	816.08	-308.31	-444.56	333.82	125.65	-594.44	231.1	92.614	-519.5	282.46	109.13	-675.15	175.8	74.826	-413.48	856.24	281.59	-516.61	1082.8	290.24	-336.81	560.53	-168.32	-374.31	73.33	-25.073	-554.41	1082.5	-21.367	-437.17	29.329	-72.709	-505.9	1033.3	-197.42
570	2.85	-284.98	1574.6	-62.348	9	2014	4	-414.87	798.04	325.54	-456.91	851.81	338.47	-491.11	1068.1	-300.78	-287.49	654.52	-169.38	-424.87	1384.9	156.38	-466.98	1245.2	249.33	-344.13	962.44	173.52	-442.67	959.21	309.58	-399.25	1352.3	-197.33	-339.55	643.46	-197.97	-315.38	334.07	-42.467	-343.65	486.37	-148.27	-360.89	630.03	208.21	-261.63	25.551	-111.18	-420.49	1204.6	-269.68	-328.8	249.76	-47.23	-335.62	164.1	-48.644	-326	252	-108.63	-208.31	30.711	-16.3	-250.92	35.665	-19.637	-420.23	628.27	218.76	-316.6	965.52	-173.38	-330.36	963.98	0.066475	-379.36	68.138	-110.27	-454.35	1571.1	45.982	-275.46	1221.7	-5.3806	-421.47	456.51	202.68	-335.68	1336.8	-15.203	-418.45	542.12	207.83	-459.3	938.09	-332.3	-505.75	828.01	-361.27	-560.54	1317.9	77.398	-559.69	980.6	-112.45	-622.96	62.571	82.271	-651.21	62.875	162.96	-480.69	773.01	-361.17	-409.97	711.6	230.78	-521.41	302.49	179.52	-751.83	196.51	100.79	-340.2	723.89	-226.16	-496.52	1415	-17.081	-697.83	183.17	154.41	-297.28	1582.7	31.882	-436.78	1559.5	-88.632	-594.71	34.001	95.621	-584.88	974.67	20.248	-407.21	858.24	-125.67	-451.32	970.81	-23.016	-330.36	963.98	0.066475	-425.93	856.16	110.23	-572.28	977.64	-46.099	-250.73	959.6	6.3466	-326.05	1043.9	1.116	-336.69	963.27	79.813	-453.48	816.3	-308.7	-435.71	335.13	126.7	-585.04	231.93	92.991	-510.37	283.53	109.84	-665.46	176.36	74.842	-411.81	856.29	280.05	-513.34	1083.6	289.38	-335.76	560.37	-168.52	-374.28	73.331	-25.078	-550.11	1083.1	-21.73	-437.2	29.331	-72.711	-500.65	1033.2	-198.45
571	2.855	-280.55	1575.1	-63.019	9	2014	4	-413.5	797.93	323.84	-455.09	852.07	337.2	-485.12	1067.9	-301.8	-285.72	654.06	-169.93	-420.99	1385.6	155.79	-463.49	1246	248.71	-340.08	963.14	173.41	-440.15	959.42	308.42	-394.88	1352.5	-198.03	-338.11	643.35	-198.03	-315.18	333.98	-42.37	-342.54	486.31	-148.38	-354.33	631.92	208.72	-261.65	25.525	-111.21	-415.29	1204.8	-270.36	-328.57	249.66	-47.238	-335.47	164	-48.698	-325.68	251.91	-108.59	-208.29	30.69	-16.369	-250.94	35.653	-19.656	-413.66	629.53	219.13	-312.59	965.84	-173.71	-326.34	964.49	-0.14797	-379.37	68.134	-110.27	-449.96	1571.6	45.224	-271.21	1222.4	-6.0628	-413.24	457.89	203.4	-331.43	1337.3	-15.816	-410.95	543.35	208.45	-451.86	938.15	-332.88	-496.9	827.52	-361.84	-556.41	1318.5	76.453	-555.57	981.08	-112.58	-612.05	63.174	84.04	-641.15	64.338	164.51	-471.09	772.9	-361.68	-404.33	712.95	231.09	-512.73	303.75	180.08	-742.32	196.44	99.768	-338.42	723.75	-226.26	-492.16	1415.6	-17.929	-688.63	183.97	154.09	-292.89	1583.2	31.202	-432.34	1560	-89.378	-583.85	34.682	98.069	-580.69	975.13	20.15	-403.25	858.56	-125.83	-447.23	971.3	-23.181	-326.34	964.49	-0.14797	-421.95	856.73	110.21	-568.13	978.1	-46.214	-246.7	960.11	6.1246	-322.02	1044.4	0.8133	-332.65	963.87	79.6	-444.7	816.53	-309.08	-426.75	336.44	127.72	-575.44	232.58	93.363	-501.09	284.51	110.54	-655.5	176.66	74.862	-410.11	856.33	278.56	-510.07	1084.3	288.57	-334.59	560.22	-168.66	-374.27	73.338	-25.087	-545.83	1083.6	-22.093	-437.23	29.338	-72.714	-495.4	1033.1	-199.48
572	2.86	-276.14	1575.6	-63.65	9	2014	4	-412.09	797.82	322.21	-453.24	852.32	335.98	-479.12	1067.7	-302.81	-283.92	653.64	-170.4	-417.09	1386.2	155.24	-460	1246.7	248.11	-336.08	963.77	173.31	-437.61	959.62	307.3	-390.52	1352.7	-198.69	-336.6	643.26	-198.02	-315	333.91	-42.255	-341.39	486.25	-148.46	-347.79	633.85	209.21	-261.66	25.498	-111.24	-410.12	1204.9	-271.01	-328.37	249.59	-47.225	-335.34	163.91	-48.724	-325.37	251.84	-108.53	-208.27	30.666	-16.437	-250.95	35.642	-19.676	-407.09	630.84	219.47	-308.61	966.08	-174.03	-322.34	964.93	-0.35873	-379.38	68.135	-110.27	-445.59	1572.1	44.51	-266.97	1223	-6.6865	-405.07	459.31	204.08	-327.19	1337.8	-16.404	-403.49	544.65	209.03	-444.37	938.22	-333.44	-487.98	827.04	-362.39	-552.28	1319	75.56	-551.46	981.52	-112.71	-600.75	63.634	85.648	-630.58	65.529	165.93	-461.4	772.82	-362.18	-398.7	714.34	231.38	-503.9	304.9	180.64	-732.56	195.93	98.863	-336.61	723.63	-226.31	-487.8	1416.1	-18.71	-679.11	184.41	153.81	-288.51	1583.7	30.564	-427.92	1560.5	-90.082	-572.53	35.323	100.28	-576.52	975.59	20.042	-399.35	858.82	-125.99	-443.17	971.74	-23.346	-322.34	964.93	-0.35873	-418.03	857.25	110.19	-563.99	978.55	-46.334	-242.71	960.53	5.9109	-318.01	1044.8	0.51538	-328.65	964.4	79.39	-435.86	816.77	-309.44	-417.71	337.75	128.72	-565.63	233.07	93.731	-491.67	285.41	111.23	-645.28	176.7	74.892	-408.36	856.37	277.14	-506.79	1085	287.79	-333.31	560.09	-168.73	-374.26	73.351	-25.1	-541.56	1084.1	-22.456	-437.26	29.35	-72.72	-490.15	1033	-200.51
